<?xml version="1.0" encoding="utf-8"?>
<svg version="1.1" xmlns:xlink="http://www.w3.org/1999/xlink" width="16px" height="16px" xmlns="http://www.w3.org/2000/svg">
  <g transform="matrix(1 0 0 1 -485 -287 )">
    <path d="M 15.901785714285714 5.625  C 15.967261904761907 5.678571428571429  16 5.75  16 5.8392857142857135  L 16 14.571428571428571  C 16 14.964285714285714  15.86011904761905 15.300595238095239  15.580357142857142 15.580357142857142  C 15.30059523809524 15.860119047619047  14.964285714285717 16  14.571428571428571 16  L 1.4285714285714286 16  C 1.0357142857142858 16  0.699404761904762 15.860119047619047  0.41964285714285715 15.580357142857142  C 0.13988095238095238 15.300595238095239  0 14.964285714285714  0 14.571428571428571  L 0 5.8392857142857135  C 0 5.75  0.03273809523809524 5.678571428571429  0.09821428571428571 5.625  C 0.14583333333333334 5.583333333333332  0.2619047619047619 5.480654761904761  0.44642857142857145 5.3169642857142865  C 0.630952380952381 5.153273809523808  0.7544642857142857 5.046130952380951  0.8169642857142857 4.9955357142857135  C 0.8794642857142858 4.944940476190476  1.0148809523809526 4.833333333333332  1.2232142857142858 4.6607142857142865  C 1.431547619047619 4.488095238095237  1.6398809523809526 4.322916666666666  1.8482142857142858 4.165178571428571  C 2.056547619047619 4.007440476190476  2.342261904761905 3.790178571428571  2.705357142857143 3.5133928571428577  C 3.068452380952381 3.2366071428571423  3.4955357142857144 2.918154761904761  3.986607142857143 2.5580357142857135  C 4.477678571428571 2.197916666666666  5.050595238095239 1.7797619047619033  5.705357142857143 1.3035714285714288  C 5.735119047619048 1.2797619047619033  5.891369047619048 1.1607142857142865  6.174107142857143 0.9464285714285712  C 6.456845238095239 0.7321428571428577  6.669642857142857 0.5758928571428577  6.8125 0.4776785714285712  C 6.955357142857143 0.3794642857142865  7.145833333333334 0.2752976190476186  7.383928571428571 0.16517857142857117  C 7.62202380952381 0.055059523809523725  7.827380952380953 0  8 0  C 8.172619047619047 0  8.377976190476192 0.055059523809523725  8.616071428571429 0.16517857142857117  C 8.854166666666668 0.2752976190476186  9.04761904761905 0.3809523809523796  9.196428571428571 0.48214285714285765  C 9.345238095238097 0.5833333333333321  9.55654761904762 0.7380952380952372  9.830357142857142 0.9464285714285712  C 10.104166666666668 1.1547619047619033  10.258928571428571 1.273809523809522  10.294642857142858 1.3035714285714288  C 10.949404761904763 1.7797619047619033  11.522321428571429 2.197916666666666  12.013392857142858 2.5580357142857135  C 12.504464285714286 2.918154761904761  12.93154761904762 3.2366071428571423  13.294642857142858 3.5133928571428577  C 13.657738095238097 3.790178571428571  13.943452380952381 4.007440476190476  14.151785714285714 4.165178571428571  C 14.36011904761905 4.322916666666666  14.568452380952383 4.488095238095237  14.776785714285714 4.6607142857142865  C 14.98511904761905 4.833333333333332  15.120535714285714 4.944940476190476  15.183035714285714 4.9955357142857135  C 15.245535714285714 5.046130952380951  15.36904761904762 5.153273809523808  15.553571428571429 5.3169642857142865  C 15.73809523809524 5.480654761904761  15.85416666666667 5.583333333333332  15.901785714285714 5.625  Z M 10.535714285714286 11.388392857142858  C 10.779761904761907 11.200892857142858  10.92261904761905 11.092261904761905  10.964285714285714 11.0625  C 12.529761904761907 9.925595238095237  13.55654761904762 9.175595238095237  14.044642857142858 8.8125  C 14.11011904761905 8.764880952380953  14.14732142857143 8.703869047619047  14.15625 8.629464285714285  C 14.165178571428573 8.555059523809524  14.145833333333334 8.485119047619047  14.098214285714286 8.419642857142858  L 13.758928571428571 7.955357142857142  C 13.711309523809524 7.8898809523809526  13.648809523809524 7.852678571428571  13.571428571428571 7.84375  C 13.49404761904762 7.834821428571429  13.42261904761905 7.854166666666666  13.357142857142858 7.9017857142857135  C 11.982142857142858 8.907738095238095  10.961309523809524 9.651785714285715  10.294642857142858 10.133928571428571  C 10.264880952380953 10.151785714285715  10.11011904761905 10.267857142857142  9.830357142857142 10.482142857142858  C 9.550595238095239 10.696428571428571  9.33779761904762 10.852678571428571  9.191964285714286 10.950892857142858  C 9.046130952380953 11.049107142857142  8.854166666666668 11.153273809523808  8.616071428571429 11.263392857142858  C 8.377976190476192 11.373511904761905  8.172619047619047 11.428571428571429  8 11.428571428571429  C 7.827380952380953 11.428571428571429  7.62202380952381 11.373511904761905  7.383928571428571 11.263392857142858  C 7.145833333333334 11.153273809523808  6.953869047619048 11.049107142857142  6.808035714285714 10.950892857142858  C 6.662202380952381 10.852678571428571  6.449404761904762 10.696428571428571  6.169642857142857 10.482142857142858  C 5.889880952380953 10.267857142857142  5.735119047619048 10.151785714285715  5.705357142857143 10.133928571428571  C 4.598214285714286 9.336309523809524  3.577380952380953 8.592261904761905  2.642857142857143 7.9017857142857135  C 2.5773809523809526 7.854166666666666  2.505952380952381 7.834821428571429  2.4285714285714284 7.84375  C 2.3511904761904767 7.852678571428571  2.2886904761904767 7.8898809523809526  2.2410714285714284 7.955357142857142  L 1.9017857142857142 8.419642857142858  C 1.8541666666666667 8.485119047619047  1.8348214285714286 8.555059523809524  1.84375 8.629464285714285  C 1.8526785714285714 8.703869047619047  1.8898809523809526 8.764880952380953  1.9553571428571428 8.8125  C 2.443452380952381 9.175595238095237  3.4702380952380953 9.925595238095237  5.035714285714286 11.0625  C 5.095238095238096 11.110119047619047  5.2440476190476195 11.223214285714285  5.482142857142857 11.401785714285715  C 5.720238095238096 11.580357142857142  5.913690476190476 11.720238095238095  6.0625 11.821428571428571  C 6.211309523809525 11.922619047619047  6.401785714285714 12.040178571428571  6.633928571428571 12.174107142857142  C 6.866071428571429 12.308035714285715  7.096726190476191 12.407738095238095  7.325892857142857 12.473214285714285  C 7.555059523809525 12.538690476190474  7.779761904761905 12.571428571428571  8 12.571428571428571  C 8.220238095238097 12.571428571428571  8.444940476190478 12.538690476190474  8.674107142857142 12.473214285714285  C 8.90327380952381 12.407738095238095  9.138392857142858 12.305059523809526  9.379464285714286 12.165178571428571  C 9.620535714285714 12.025297619047619  9.8125 11.907738095238095  9.955357142857142 11.8125  C 10.098214285714286 11.717261904761905  10.291666666666668 11.575892857142858  10.535714285714286 11.388392857142858  Z " fill-rule="nonzero" fill="#ffffff" stroke="none" fill-opacity="0.996078431372549" transform="matrix(1 0 0 1 485 287 )" />
  </g>
</svg>