<?xml version="1.0" encoding="utf-8"?>
<svg version="1.1" xmlns:xlink="http://www.w3.org/1999/xlink" width="16px" height="16px" xmlns="http://www.w3.org/2000/svg">
  <g transform="matrix(1 0 0 1 -276 -129 )">
    <path d="M 3.69230769230769 12  L 3.69230769230769 14.6666666666667  L 12.3076923076923 14.6666666666667  L 12.3076923076923 12  L 3.69230769230769 12  Z M 3.69230769230769 1.33333333333333  L 3.69230769230769 8  L 12.3076923076923 8  L 12.3076923076923 4  L 10.7692307692308 4  C 10.5128205128205 4  10.2948717948718 3.90277777777778  10.1153846153846 3.70833333333333  C 9.93589743589744 3.51388888888889  9.84615384615385 3.27777777777778  9.84615384615385 3  L 9.84615384615385 1.33333333333333  L 3.69230769230769 1.33333333333333  Z M 14.5865384615385 9.13541666666667  C 14.7083333333333 9.00347222222222  14.7692307692308 8.84722222222222  14.7692307692308 8.66666666666667  C 14.7692307692308 8.48611111111111  14.7083333333333 8.32986111111111  14.5865384615385 8.19791666666667  C 14.4647435897436 8.06597222222222  14.3205128205128 8  14.1538461538462 8  C 13.9871794871795 8  13.8429487179487 8.06597222222222  13.7211538461538 8.19791666666667  C 13.599358974359 8.32986111111111  13.5384615384615 8.48611111111111  13.5384615384615 8.66666666666667  C 13.5384615384615 8.84722222222222  13.599358974359 9.00347222222222  13.7211538461538 9.13541666666667  C 13.8429487179487 9.26736111111111  13.9871794871795 9.33333333333333  14.1538461538462 9.33333333333333  C 14.3205128205128 9.33333333333333  14.4647435897436 9.26736111111111  14.5865384615385 9.13541666666667  Z M 15.4567307692308 7.25520833333333  C 15.8189102564103 7.64756944444444  16 8.11805555555555  16 8.66666666666667  L 16 13  C 16 13.0902777777778  15.9695512820513 13.1684027777778  15.9086538461538 13.234375  C 15.8477564102564 13.3003472222222  15.775641025641 13.3333333333333  15.6923076923077 13.3333333333333  L 13.5384615384615 13.3333333333333  L 13.5384615384615 15  C 13.5384615384615 15.2777777777778  13.4487179487179 15.5138888888889  13.2692307692308 15.7083333333333  C 13.0897435897436 15.9027777777778  12.8717948717949 16  12.6153846153846 16  L 3.38461538461538 16  C 3.12820512820513 16  2.91025641025641 15.9027777777778  2.73076923076923 15.7083333333333  C 2.55128205128205 15.5138888888889  2.46153846153846 15.2777777777778  2.46153846153846 15  L 2.46153846153846 13.3333333333333  L 0.307692307692308 13.3333333333333  C 0.224358974358974 13.3333333333333  0.15224358974359 13.3003472222222  0.0913461538461538 13.234375  C 0.0304487179487179 13.1684027777778  0 13.0902777777778  0 13  L 0 8.66666666666667  C 0 8.11805555555555  0.181089743589744 7.64756944444444  0.543269230769231 7.25520833333333  C 0.905448717948718 6.86284722222222  1.33974358974359 6.66666666666667  1.84615384615385 6.66666666666667  L 2.46153846153846 6.66666666666667  L 2.46153846153846 1  C 2.46153846153846 0.722222222222221  2.55128205128205 0.486111111111109  2.73076923076923 0.291666666666666  C 2.91025641025641 0.0972222222222214  3.12820512820513 0  3.38461538461538 0  L 9.84615384615385 0  C 10.1025641025641 0  10.3846153846154 0.0694444444444429  10.6923076923077 0.208333333333334  C 11 0.347222222222221  11.2435897435897 0.513888888888888  11.4230769230769 0.708333333333334  L 12.8846153846154 2.29166666666667  C 13.0641025641026 2.48611111111111  13.2179487179487 2.75  13.3461538461538 3.08333333333333  C 13.474358974359 3.41666666666667  13.5384615384615 3.72222222222222  13.5384615384615 4  L 13.5384615384615 6.66666666666667  L 14.1538461538462 6.66666666666667  C 14.6602564102564 6.66666666666667  15.0945512820513 6.86284722222222  15.4567307692308 7.25520833333333  Z " fill-rule="nonzero" fill="#6d000e" stroke="none" transform="matrix(1 0 0 1 276 129 )" />
  </g>
</svg>