<?xml version="1.0" encoding="utf-8"?>
<svg version="1.1" xmlns:xlink="http://www.w3.org/1999/xlink" width="13px" height="16px" xmlns="http://www.w3.org/2000/svg">
  <defs>
    <mask fill="white" id="clip34">
      <path d="M 1.178125 0  L 11.821875 0  C 11.9776041666667 0  12.1265625 0.0317250495703902  12.26875 0.0951751487111707  C 12.4921875 0.186825291914516  12.669921875 0.331350517735183  12.801953125 0.528750826173166  C 12.933984375 0.726151134611147  13 0.944701476096055  13 1.18440185062789  L 13 14.8155981493721  C 13 15.0552985239039  12.933984375 15.2738488653889  12.801953125 15.4712491738268  C 12.669921875 15.6686494822648  12.4921875 15.8131747080855  12.26875 15.9048248512888  C 12.1401041666667 15.961224939414  11.9911458333333 15.9894249834765  11.821875 15.9894249834765  C 11.496875 15.9894249834765  11.2158854166667 15.8766248072263  10.97890625 15.6510244547257  L 6.5 11.1672174487773  L 2.02109375 15.6510244547257  C 1.77734375 15.8836748182419  1.49635416666667 16  1.178125 16  C 1.02239583333333 16  0.8734375 15.9682749504296  0.73125 15.9048248512888  C 0.5078125 15.8131747080855  0.330078125 15.6686494822648  0.198046875 15.4712491738268  C 0.066015625 15.2738488653889  0 15.0552985239039  0 14.8155981493721  L 0 1.18440185062789  C 0 0.944701476096055  0.066015625 0.726151134611147  0.198046875 0.528750826173166  C 0.330078125 0.331350517735183  0.5078125 0.186825291914516  0.73125 0.0951751487111707  C 0.8734375 0.0317250495703902  1.02239583333333 0  1.178125 0  Z " fill-rule="evenodd" />
    </mask>
  </defs>
  <g transform="matrix(1 0 0 1 -231 -403 )">
    <path d="M 1.178125 0  L 11.821875 0  C 11.9776041666667 0  12.1265625 0.0317250495703902  12.26875 0.0951751487111707  C 12.4921875 0.186825291914516  12.669921875 0.331350517735183  12.801953125 0.528750826173166  C 12.933984375 0.726151134611147  13 0.944701476096055  13 1.18440185062789  L 13 14.8155981493721  C 13 15.0552985239039  12.933984375 15.2738488653889  12.801953125 15.4712491738268  C 12.669921875 15.6686494822648  12.4921875 15.8131747080855  12.26875 15.9048248512888  C 12.1401041666667 15.961224939414  11.9911458333333 15.9894249834765  11.821875 15.9894249834765  C 11.496875 15.9894249834765  11.2158854166667 15.8766248072263  10.97890625 15.6510244547257  L 6.5 11.1672174487773  L 2.02109375 15.6510244547257  C 1.77734375 15.8836748182419  1.49635416666667 16  1.178125 16  C 1.02239583333333 16  0.8734375 15.9682749504296  0.73125 15.9048248512888  C 0.5078125 15.8131747080855  0.330078125 15.6686494822648  0.198046875 15.4712491738268  C 0.066015625 15.2738488653889  0 15.0552985239039  0 14.8155981493721  L 0 1.18440185062789  C 0 0.944701476096055  0.066015625 0.726151134611147  0.198046875 0.528750826173166  C 0.330078125 0.331350517735183  0.5078125 0.186825291914516  0.73125 0.0951751487111707  C 0.8734375 0.0317250495703902  1.02239583333333 0  1.178125 0  Z " fill-rule="nonzero" fill="#d0e34d" stroke="none" transform="matrix(1 0 0 1 231 403 )" />
    <path d="M 1.178125 0  L 11.821875 0  C 11.9776041666667 0  12.1265625 0.0317250495703902  12.26875 0.0951751487111707  C 12.4921875 0.186825291914516  12.669921875 0.331350517735183  12.801953125 0.528750826173166  C 12.933984375 0.726151134611147  13 0.944701476096055  13 1.18440185062789  L 13 14.8155981493721  C 13 15.0552985239039  12.933984375 15.2738488653889  12.801953125 15.4712491738268  C 12.669921875 15.6686494822648  12.4921875 15.8131747080855  12.26875 15.9048248512888  C 12.1401041666667 15.961224939414  11.9911458333333 15.9894249834765  11.821875 15.9894249834765  C 11.496875 15.9894249834765  11.2158854166667 15.8766248072263  10.97890625 15.6510244547257  L 6.5 11.1672174487773  L 2.02109375 15.6510244547257  C 1.77734375 15.8836748182419  1.49635416666667 16  1.178125 16  C 1.02239583333333 16  0.8734375 15.9682749504296  0.73125 15.9048248512888  C 0.5078125 15.8131747080855  0.330078125 15.6686494822648  0.198046875 15.4712491738268  C 0.066015625 15.2738488653889  0 15.0552985239039  0 14.8155981493721  L 0 1.18440185062789  C 0 0.944701476096055  0.066015625 0.726151134611147  0.198046875 0.528750826173166  C 0.330078125 0.331350517735183  0.5078125 0.186825291914516  0.73125 0.0951751487111707  C 0.8734375 0.0317250495703902  1.02239583333333 0  1.178125 0  Z " stroke-width="2" stroke="#f2f2f2" fill="none" stroke-opacity="0.917647058823529" transform="matrix(1 0 0 1 231 403 )" mask="url(#clip34)" />
  </g>
</svg>