<?xml version="1.0" encoding="utf-8"?>
<svg version="1.1" xmlns:xlink="http://www.w3.org/1999/xlink" width="16px" height="15px" xmlns="http://www.w3.org/2000/svg">
  <g transform="matrix(1 0 0 1 -172 -130 )">
    <path d="M 4.26666666666667 5.35714285714286  C 4.26666666666667 6.1328125  4.49166666666667 6.84709821428571  4.94166666666667 7.5  C 4.04166666666667 7.52790178571429  3.30555555555556 7.88504464285714  2.73333333333333 8.57142857142857  L 1.61666666666667 8.57142857142857  C 1.16111111111111 8.57142857142857  0.777777777777778 8.45842633928572  0.466666666666667 8.232421875  C 0.155555555555556 8.00641741071428  0 7.67578125  0 7.24051339285714  C 0 5.27064732142857  0.344444444444444 4.28571428571429  1.03333333333333 4.28571428571429  C 1.06666666666667 4.28571428571429  1.1875 4.34430803571429  1.39583333333333 4.46149553571429  C 1.60416666666667 4.57868303571429  1.875 4.697265625  2.20833333333333 4.81724330357143  C 2.54166666666667 4.93722098214286  2.87222222222222 4.99720982142857  3.2 4.99720982142857  C 3.57222222222222 4.99720982142857  3.94166666666667 4.93303571428571  4.30833333333333 4.8046875  C 4.28055555555556 5.01116071428571  4.26666666666667 5.1953125  4.26666666666667 5.35714285714286  Z M 13.8375 11.9656808035714  C 13.8569444444444 12.2474888392857  13.8666666666667 12.5362723214286  13.8666666666667 12.83203125  C 13.8666666666667 13.5016741071429  13.6638888888889 14.0304129464286  13.2583333333333 14.4182477678571  C 12.8527777777778 14.8060825892857  12.3138888888889 15  11.6416666666667 15  L 4.35833333333333 15  C 3.68611111111111 15  3.14722222222222 14.8060825892857  2.74166666666667 14.4182477678571  C 2.33611111111111 14.0304129464286  2.13333333333333 13.5016741071429  2.13333333333333 12.83203125  C 2.13333333333333 12.5362723214286  2.14305555555556 12.2474888392857  2.1625 11.9656808035714  C 2.18194444444444 11.6838727678571  2.22083333333333 11.3797433035714  2.27916666666667 11.0532924107143  C 2.3375 10.7268415178571  2.41111111111111 10.4241071428571  2.5 10.1450892857143  C 2.58888888888889 9.86607142857143  2.70833333333333 9.59402901785714  2.85833333333333 9.32896205357143  C 3.00833333333333 9.06389508928571  3.18055555555556 8.837890625  3.375 8.65094866071428  C 3.56944444444444 8.46400669642857  3.80694444444444 8.31473214285714  4.0875 8.203125  C 4.36805555555556 8.09151785714286  4.67777777777778 8.03571428571428  5.01666666666667 8.03571428571428  C 5.07222222222222 8.03571428571428  5.19166666666667 8.095703125  5.375 8.21568080357143  C 5.55833333333333 8.33565848214286  5.76111111111111 8.46958705357143  5.98333333333333 8.61746651785714  C 6.20555555555556 8.76534598214286  6.50277777777778 8.89927455357143  6.875 9.01925223214286  C 7.24722222222222 9.13922991071429  7.62222222222222 9.19921875  8 9.19921875  C 8.37777777777778 9.19921875  8.75277777777778 9.13922991071429  9.125 9.01925223214286  C 9.49722222222222 8.89927455357143  9.79444444444445 8.76534598214286  10.0166666666667 8.61746651785714  C 10.2388888888889 8.46958705357143  10.4416666666667 8.33565848214286  10.625 8.21568080357143  C 10.8083333333333 8.095703125  10.9277777777778 8.03571428571428  10.9833333333333 8.03571428571428  C 11.3222222222222 8.03571428571428  11.6319444444444 8.09151785714286  11.9125 8.203125  C 12.1930555555556 8.31473214285714  12.4305555555556 8.46400669642857  12.625 8.65094866071428  C 12.8194444444444 8.837890625  12.9916666666667 9.06389508928571  13.1416666666667 9.32896205357143  C 13.2916666666667 9.59402901785714  13.4111111111111 9.86607142857143  13.5 10.1450892857143  C 13.5888888888889 10.4241071428571  13.6625 10.7268415178571  13.7208333333333 11.0532924107143  C 13.7791666666667 11.3797433035714  13.8180555555556 11.6838727678571  13.8375 11.9656808035714  Z M 4.70833333333333 0.627790178571429  C 5.125 1.04631696428571  5.33333333333333 1.55133928571428  5.33333333333333 2.14285714285714  C 5.33333333333333 2.734375  5.125 3.23939732142857  4.70833333333333 3.65792410714286  C 4.29166666666667 4.07645089285714  3.78888888888889 4.28571428571429  3.2 4.28571428571429  C 2.61111111111111 4.28571428571429  2.10833333333333 4.07645089285714  1.69166666666667 3.65792410714286  C 1.275 3.23939732142857  1.06666666666667 2.734375  1.06666666666667 2.14285714285714  C 1.06666666666667 1.55133928571428  1.275 1.04631696428571  1.69166666666667 0.627790178571429  C 2.10833333333333 0.209263392857144  2.61111111111111 0  3.2 0  C 3.78888888888889 0  4.29166666666667 0.209263392857144  4.70833333333333 0.627790178571429  Z M 10.2625 3.08454241071429  C 10.8875 3.71233258928571  11.2 4.46986607142857  11.2 5.35714285714286  C 11.2 6.24441964285714  10.8875 7.001953125  10.2625 7.62974330357143  C 9.6375 8.25753348214286  8.88333333333333 8.57142857142857  8 8.57142857142857  C 7.11666666666667 8.57142857142857  6.3625 8.25753348214286  5.7375 7.62974330357143  C 5.1125 7.001953125  4.8 6.24441964285714  4.8 5.35714285714286  C 4.8 4.46986607142857  5.1125 3.71233258928571  5.7375 3.08454241071429  C 6.3625 2.45675223214286  7.11666666666667 2.14285714285714  8 2.14285714285714  C 8.88333333333333 2.14285714285714  9.6375 2.45675223214286  10.2625 3.08454241071429  Z M 14.9666666666667 4.28571428571429  C 15.6555555555556 4.28571428571429  16 5.27064732142857  16 7.24051339285714  C 16 7.67578125  15.8444444444444 8.00641741071428  15.5333333333333 8.232421875  C 15.2222222222222 8.45842633928572  14.8388888888889 8.57142857142857  14.3833333333333 8.57142857142857  L 13.2666666666667 8.57142857142857  C 12.6944444444444 7.88504464285714  11.9583333333333 7.52790178571429  11.0583333333333 7.5  C 11.5083333333333 6.84709821428571  11.7333333333333 6.1328125  11.7333333333333 5.35714285714286  C 11.7333333333333 5.1953125  11.7194444444444 5.01116071428571  11.6916666666667 4.8046875  C 12.0583333333333 4.93303571428571  12.4277777777778 4.99720982142857  12.8 4.99720982142857  C 13.1277777777778 4.99720982142857  13.4583333333333 4.93722098214286  13.7916666666667 4.81724330357143  C 14.125 4.697265625  14.3958333333333 4.57868303571429  14.6041666666667 4.46149553571429  C 14.8125 4.34430803571429  14.9333333333333 4.28571428571429  14.9666666666667 4.28571428571429  Z M 14.3083333333333 0.627790178571429  C 14.725 1.04631696428571  14.9333333333333 1.55133928571428  14.9333333333333 2.14285714285714  C 14.9333333333333 2.734375  14.725 3.23939732142857  14.3083333333333 3.65792410714286  C 13.8916666666667 4.07645089285714  13.3888888888889 4.28571428571429  12.8 4.28571428571429  C 12.2111111111111 4.28571428571429  11.7083333333333 4.07645089285714  11.2916666666667 3.65792410714286  C 10.875 3.23939732142857  10.6666666666667 2.734375  10.6666666666667 2.14285714285714  C 10.6666666666667 1.55133928571428  10.875 1.04631696428571  11.2916666666667 0.627790178571429  C 11.7083333333333 0.209263392857144  12.2111111111111 0  12.8 0  C 13.3888888888889 0  13.8916666666667 0.209263392857144  14.3083333333333 0.627790178571429  Z " fill-rule="nonzero" fill="#6d000e" stroke="none" transform="matrix(1 0 0 1 172 130 )" />
  </g>
</svg>