<?xml version="1.0" encoding="utf-8"?>
<svg version="1.1" xmlns:xlink="http://www.w3.org/1999/xlink" width="16px" height="16px" xmlns="http://www.w3.org/2000/svg">
  <g transform="matrix(1 0 0 1 -294 -174 )">
    <path d="M 12.125 14.46875  C 12.2467948717949 14.3368055555556  12.3076923076923 14.1805555555556  12.3076923076923 14  C 12.3076923076923 13.8194444444444  12.2467948717949 13.6631944444444  12.125 13.53125  C 12.0032051282051 13.3993055555556  11.8589743589744 13.3333333333333  11.6923076923077 13.3333333333333  C 11.525641025641 13.3333333333333  11.3814102564103 13.3993055555556  11.2596153846154 13.53125  C 11.1378205128205 13.6631944444444  11.0769230769231 13.8194444444444  11.0769230769231 14  C 11.0769230769231 14.1805555555556  11.1378205128205 14.3368055555556  11.2596153846154 14.46875  C 11.3814102564103 14.6006944444444  11.525641025641 14.6666666666667  11.6923076923077 14.6666666666667  C 11.8589743589744 14.6666666666667  12.0032051282051 14.6006944444444  12.125 14.46875  Z M 14.5865384615385 14.46875  C 14.7083333333333 14.3368055555556  14.7692307692308 14.1805555555556  14.7692307692308 14  C 14.7692307692308 13.8194444444444  14.7083333333333 13.6631944444444  14.5865384615385 13.53125  C 14.4647435897436 13.3993055555556  14.3205128205128 13.3333333333333  14.1538461538462 13.3333333333333  C 13.9871794871795 13.3333333333333  13.8429487179487 13.3993055555556  13.7211538461538 13.53125  C 13.599358974359 13.6631944444444  13.5384615384615 13.8194444444444  13.5384615384615 14  C 13.5384615384615 14.1805555555556  13.599358974359 14.3368055555556  13.7211538461538 14.46875  C 13.8429487179487 14.6006944444444  13.9871794871795 14.6666666666667  14.1538461538462 14.6666666666667  C 14.3205128205128 14.6666666666667  14.4647435897436 14.6006944444444  14.5865384615385 14.46875  Z M 15.7307692307692 10.9583333333333  C 15.9102564102564 11.1527777777778  16 11.3888888888889  16 11.6666666666667  L 16 15  C 16 15.2777777777778  15.9102564102564 15.5138888888889  15.7307692307692 15.7083333333333  C 15.5512820512821 15.9027777777778  15.3333333333333 16  15.0769230769231 16  L 0.923076923076923 16  C 0.666666666666667 16  0.448717948717949 15.9027777777778  0.269230769230769 15.7083333333333  C 0.0897435897435897 15.5138888888889  0 15.2777777777778  0 15  L 0 11.6666666666667  C 0 11.3888888888889  0.0897435897435897 11.1527777777778  0.269230769230769 10.9583333333333  C 0.448717948717949 10.7638888888889  0.666666666666667 10.6666666666667  0.923076923076923 10.6666666666667  L 5.39423076923077 10.6666666666667  L 6.69230769230769 12.0833333333333  C 7.06410256410256 12.4722222222222  7.5 12.6666666666667  8 12.6666666666667  C 8.5 12.6666666666667  8.93589743589744 12.4722222222222  9.30769230769231 12.0833333333333  L 10.6153846153846 10.6666666666667  L 15.0769230769231 10.6666666666667  C 15.3333333333333 10.6666666666667  15.5512820512821 10.7638888888889  15.7307692307692 10.9583333333333  Z M 12.3076923076923 5.33333333333333  C 12.5769230769231 5.33333333333333  12.7660256410256 5.46875  12.875 5.73958333333333  C 12.9839743589744 6.02430555555556  12.9391025641026 6.26736111111111  12.7403846153846 6.46875  L 8.43269230769231 11.1354166666667  C 8.31730769230769 11.2673611111111  8.17307692307692 11.3333333333333  8 11.3333333333333  C 7.82692307692308 11.3333333333333  7.68269230769231 11.2673611111111  7.56730769230769 11.1354166666667  L 3.25961538461538 6.46875  C 3.06089743589744 6.26736111111111  3.01602564102564 6.02430555555556  3.125 5.73958333333333  C 3.23397435897436 5.46875  3.42307692307692 5.33333333333333  3.69230769230769 5.33333333333333  L 6.15384615384615 5.33333333333333  L 6.15384615384615 0.666666666666666  C 6.15384615384615 0.486111111111109  6.21474358974359 0.329861111111109  6.33653846153846 0.197916666666666  C 6.45833333333333 0.0659722222222232  6.6025641025641 0  6.76923076923077 0  L 9.23076923076923 0  C 9.3974358974359 0  9.54166666666667 0.0659722222222232  9.66346153846154 0.197916666666666  C 9.78525641025641 0.329861111111109  9.84615384615385 0.486111111111109  9.84615384615385 0.666666666666666  L 9.84615384615385 5.33333333333333  L 12.3076923076923 5.33333333333333  Z " fill-rule="nonzero" fill="#9ba266" stroke="none" transform="matrix(1 0 0 1 294 174 )" />
  </g>
</svg>