<?xml version="1.0" encoding="utf-8"?>
<svg version="1.1" xmlns:xlink="http://www.w3.org/1999/xlink" width="15px" height="16px" xmlns="http://www.w3.org/2000/svg">
  <g transform="matrix(1 0 0 1 -24 -129 )">
    <path d="M 14.900390625 11.5677083333333  C 14.966796875 12.0920138888889  15 12.6493055555556  15 13.2395833333333  C 15 13.9965277777778  14.755859375 14.6458333333333  14.267578125 15.1875  C 13.779296875 15.7291666666667  13.19140625 16  12.50390625 16  L 2.49609375 16  C 1.80859375 16  1.220703125 15.7291666666667  0.732421875 15.1875  C 0.244140625 14.6458333333333  0 13.9965277777778  0 13.2395833333333  C 0 12.6493055555556  0.0332031250000001 12.0920138888889  0.0996093750000001 11.5677083333333  C 0.166015625 11.0434027777778  0.2890625 10.515625  0.46875 9.984375  C 0.6484375 9.453125  0.876953125 8.99826388888889  1.154296875 8.61979166666667  C 1.431640625 8.24131944444444  1.798828125 7.93229166666667  2.255859375 7.69270833333333  C 2.712890625 7.453125  3.23828125 7.33333333333333  3.83203125 7.33333333333333  C 4.85546875 8.22222222222222  6.078125 8.66666666666667  7.5 8.66666666666667  C 8.921875 8.66666666666667  10.14453125 8.22222222222222  11.16796875 7.33333333333333  C 11.76171875 7.33333333333333  12.287109375 7.453125  12.744140625 7.69270833333333  C 13.201171875 7.93229166666667  13.568359375 8.24131944444444  13.845703125 8.61979166666667  C 14.123046875 8.99826388888889  14.3515625 9.453125  14.53125 9.984375  C 14.7109375 10.515625  14.833984375 11.0434027777778  14.900390625 11.5677083333333  Z M 10.681640625 1.171875  C 11.560546875 1.953125  12 2.89583333333333  12 4  C 12 5.10416666666667  11.560546875 6.046875  10.681640625 6.828125  C 9.802734375 7.609375  8.7421875 8  7.5 8  C 6.2578125 8  5.197265625 7.609375  4.318359375 6.828125  C 3.439453125 6.046875  3 5.10416666666667  3 4  C 3 2.89583333333333  3.439453125 1.953125  4.318359375 1.171875  C 5.197265625 0.390625  6.2578125 0  7.5 0  C 8.7421875 0  9.802734375 0.390625  10.681640625 1.171875  Z " fill-rule="nonzero" fill="#6d000e" stroke="none" transform="matrix(1 0 0 1 24 129 )" />
  </g>
</svg>