<?xml version="1.0" encoding="utf-8"?>
<svg version="1.1" xmlns:xlink="http://www.w3.org/1999/xlink" width="16px" height="16px" xmlns="http://www.w3.org/2000/svg">
  <g transform="matrix(1 0 0 1 -485 -312 )">
    <path d="M 15.965909090909092 12.397727272727273  C 15.988636363636363 12.450757575757574  16 12.530303030303028  16 12.636363636363637  C 16 12.84090909090909  15.962121212121213 13.107954545454545  15.886363636363637 13.4375  C 15.810606060606062 13.767045454545455  15.731060606060607 14.02651515151515  15.647727272727273 14.21590909090909  C 15.488636363636363 14.594696969696969  15.026515151515154 14.996212121212121  14.261363636363637 15.420454545454545  C 13.549242424242426 15.806818181818182  12.84469696969697 16  12.147727272727273 16  C 11.943181818181818 16  11.742424242424244 15.986742424242424  11.545454545454545 15.960227272727273  C 11.34848484848485 15.933712121212123  11.13068181818182 15.886363636363637  10.892045454545455 15.818181818181818  C 10.653409090909092 15.75  10.475378787878789 15.695075757575758  10.357954545454545 15.653409090909092  C 10.240530303030305 15.611742424242424  10.030303030303031 15.534090909090908  9.727272727272727 15.420454545454545  C 9.424242424242426 15.306818181818182  9.238636363636365 15.238636363636363  9.170454545454545 15.215909090909092  C 8.428030303030305 14.950757575757576  7.765151515151516 14.636363636363637  7.181818181818182 14.272727272727273  C 6.21969696969697 13.674242424242424  5.21969696969697 12.856060606060606  4.181818181818182 11.818181818181818  C 3.143939393939394 10.780303030303028  2.325757575757576 9.780303030303031  1.7272727272727273 8.818181818181818  C 1.3636363636363635 8.234848484848484  1.0492424242424243 7.5719696969696955  0.7840909090909091 6.829545454545455  C 0.7613636363636364 6.761363636363635  0.6931818181818182 6.575757575757574  0.5795454545454546 6.272727272727273  C 0.4659090909090909 5.969696969696969  0.3882575757575758 5.7594696969696955  0.3465909090909091 5.642045454545455  C 0.30492424242424243 5.524621212121211  0.25 5.346590909090908  0.18181818181818182 5.107954545454545  C 0.11363636363636363 4.86931818181818  0.0662878787878788 4.6515151515151505  0.03977272727272727 4.454545454545455  C 0.013257575757575756 4.257575757575756  0 4.056818181818182  0 3.8522727272727266  C 0 3.1553030303030294  0.19318181818181818 2.4507575757575744  0.5795454545454546 1.7386363636363633  C 1.003787878787879 0.973484848484846  1.4053030303030303 0.5113636363636367  1.7840909090909092 0.3522727272727266  C 1.9734848484848486 0.2689393939393927  2.2329545454545454 0.18939393939393767  2.5625 0.11363636363636331  C 2.8920454545454546 0.03787878787878718  3.159090909090909 0  3.3636363636363638 0  C 3.46969696969697 0  3.5492424242424248 0.011363636363636687  3.602272727272727 0.034090909090908283  C 3.7386363636363638 0.07954545454545503  3.9393939393939394 0.3674242424242422  4.204545454545454 0.8977272727272734  C 4.287878787878788 1.0416666666666643  4.401515151515152 1.2462121212121193  4.545454545454546 1.5113636363636367  C 4.6893939393939394 1.7765151515151505  4.821969696969697 2.017045454545455  4.943181818181818 2.232954545454545  C 5.0643939393939394 2.4488636363636367  5.181818181818182 2.6515151515151505  5.295454545454546 2.8409090909090917  C 5.318181818181818 2.8712121212121193  5.384469696969697 2.9659090909090917  5.494318181818182 3.125  C 5.604166666666668 3.2840909090909083  5.685606060606061 3.4185606060606055  5.738636363636363 3.5284090909090917  C 5.791666666666667 3.6382575757575744  5.818181818181818 3.7462121212121193  5.818181818181818 3.8522727272727266  C 5.818181818181818 4.003787878787877  5.7102272727272725 4.193181818181818  5.494318181818182 4.420454545454545  C 5.278409090909091 4.647727272727273  5.043560606060606 4.8560606060606055  4.7897727272727275 5.045454545454545  C 4.535984848484849 5.234848484848483  4.301136363636363 5.4356060606060606  4.0852272727272725 5.647727272727273  C 3.8693181818181817 5.859848484848484  3.7613636363636362 6.034090909090908  3.7613636363636362 6.170454545454545  C 3.7613636363636362 6.238636363636363  3.7803030303030307 6.323863636363637  3.8181818181818183 6.426136363636363  C 3.8560606060606064 6.528409090909092  3.888257575757576 6.6060606060606055  3.914772727272727 6.659090909090908  C 3.9412878787878793 6.712121212121211  3.9943181818181817 6.803030303030303  4.073863636363637 6.931818181818182  C 4.153409090909091 7.0606060606060606  4.196969696969697 7.132575757575758  4.204545454545454 7.147727272727273  C 4.78030303030303 8.185606060606059  5.4393939393939394 9.075757575757574  6.181818181818182 9.818181818181818  C 6.924242424242425 10.560606060606059  7.81439393939394 11.219696969696969  8.852272727272727 11.795454545454547  C 8.867424242424242 11.803030303030301  8.93939393939394 11.84659090909091  9.068181818181818 11.926136363636363  C 9.196969696969697 12.005681818181818  9.287878787878789 12.05871212121212  9.340909090909092 12.085227272727273  C 9.393939393939394 12.111742424242424  9.471590909090908 12.143939393939393  9.573863636363637 12.181818181818182  C 9.676136363636363 12.219696969696969  9.761363636363637 12.238636363636363  9.829545454545455 12.238636363636363  C 9.965909090909092 12.238636363636363  10.140151515151516 12.130681818181818  10.352272727272727 11.914772727272727  C 10.56439393939394 11.698863636363637  10.765151515151517 11.46401515151515  10.954545454545455 11.210227272727273  C 11.143939393939394 10.956439393939391  11.352272727272727 10.72159090909091  11.579545454545455 10.505681818181818  C 11.806818181818182 10.289772727272727  11.996212121212123 10.181818181818182  12.147727272727273 10.181818181818182  C 12.25378787878788 10.181818181818182  12.361742424242426 10.208333333333332  12.471590909090908 10.261363636363637  C 12.581439393939394 10.314393939393938  12.715909090909092 10.395833333333332  12.875 10.505681818181818  C 13.034090909090908 10.615530303030301  13.12878787878788 10.681818181818182  13.159090909090908 10.704545454545453  C 13.34848484848485 10.818181818181818  13.551136363636363 10.935606060606059  13.767045454545455 11.056818181818182  C 13.982954545454545 11.178030303030301  14.22348484848485 11.310606060606059  14.488636363636363 11.454545454545453  C 14.75378787878788 11.598484848484848  14.958333333333336 11.712121212121211  15.102272727272727 11.795454545454547  C 15.632575757575758 12.060606060606059  15.920454545454545 12.261363636363637  15.965909090909092 12.397727272727273  Z " fill-rule="nonzero" fill="#ffffff" stroke="none" transform="matrix(1 0 0 1 485 312 )" />
  </g>
</svg>