<?xml version="1.0" encoding="utf-8"?>
<svg version="1.1" xmlns:xlink="http://www.w3.org/1999/xlink" width="16px" height="13px" xmlns="http://www.w3.org/2000/svg">
  <g transform="matrix(1 0 0 1 -654 -413 )">
    <path d="M 14.7355769230769 1.21413352272727  C 15.5785256410256 2.02355587121212  16 2.99763257575757  16 4.13636363636364  L 16 6.5  C 16 6.66003787878788  15.9391025641026 6.7985321969697  15.8173076923077 6.91548295454546  C 15.6955128205128 7.03243371212121  15.5512820512821 7.09090909090909  15.3846153846154 7.09090909090909  L 14.7692307692308 7.09090909090909  C 14.6025641025641 7.09090909090909  14.4583333333333 7.03243371212121  14.3365384615385 6.91548295454546  C 14.2147435897436 6.7985321969697  14.1538461538462 6.66003787878788  14.1538461538462 6.5  L 14.1538461538462 4.13636363636364  C 14.1538461538462 3.48390151515151  13.9134615384615 2.92684659090909  13.4326923076923 2.46519886363636  C 12.9519230769231 2.00355113636364  12.3717948717949 1.77272727272727  11.6923076923077 1.77272727272727  C 11.0128205128205 1.77272727272727  10.4326923076923 2.00355113636364  9.95192307692308 2.46519886363636  C 9.47115384615385 2.92684659090909  9.23076923076923 3.48390151515151  9.23076923076923 4.13636363636364  L 9.23076923076923 5.90909090909091  L 10.1538461538462 5.90909090909091  C 10.4102564102564 5.90909090909091  10.6282051282051 5.99526515151515  10.8076923076923 6.16761363636364  C 10.9871794871795 6.33996212121212  11.0769230769231 6.54924242424242  11.0769230769231 6.79545454545455  L 11.0769230769231 12.1136363636364  C 11.0769230769231 12.3598484848485  10.9871794871795 12.5691287878788  10.8076923076923 12.7414772727273  C 10.6282051282051 12.9138257575758  10.4102564102564 13  10.1538461538462 13  L 0.923076923076923 13  C 0.666666666666667 13  0.448717948717949 12.9138257575758  0.269230769230769 12.7414772727273  C 0.0897435897435897 12.5691287878788  0 12.3598484848485  0 12.1136363636364  L 0 6.79545454545455  C 0 6.54924242424242  0.0897435897435897 6.33996212121212  0.269230769230769 6.16761363636364  C 0.448717948717949 5.99526515151515  0.666666666666667 5.90909090909091  0.923076923076923 5.90909090909091  L 7.38461538461539 5.90909090909091  L 7.38461538461539 4.13636363636364  C 7.38461538461539 2.99763257575757  7.80608974358974 2.02355587121212  8.64903846153846 1.21413352272727  C 9.49198717948718 0.404711174242424  10.5064102564103 0  11.6923076923077 0  C 12.8782051282051 0  13.8926282051282 0.404711174242424  14.7355769230769 1.21413352272727  Z " fill-rule="nonzero" fill="#071e33" stroke="none" transform="matrix(1 0 0 1 654 413 )" />
  </g>
</svg>