<?xml version="1.0" encoding="utf-8"?>
<svg width="16px" height="16px" viewBox="0 0 16 16" version="1.1" xmlns:xlink="http://www.w3.org/1999/xlink" xmlns="http://www.w3.org/2000/svg">
  <desc>Created with Lunacy</desc>
  <path d="M0 1.77763L0 14.2219C0 15.1998 0.790849 16 1.77763 16L14.2219 16C15.1998 16 16 15.1998 16 14.2219L16 1.77763C16 0.799755 15.1998 0 14.2219 0L1.77763 0C0.790849 0 0 0.799755 0 1.77763ZM10.6666 5.33327C10.6666 6.80854 9.47541 7.99972 7.9997 7.99972C6.52442 7.99972 5.33325 6.80854 5.33325 5.33327C5.33325 3.85755 6.52442 2.66638 7.9997 2.66638C9.47541 2.66638 10.6666 3.85755 10.6666 5.33327ZM7.99972 9.68884C6.22209 9.68884 2.66638 10.6667 2.66638 12.4443L2.66638 13.3332L13.333 13.3332L13.333 12.4443C13.333 10.6667 9.77779 9.68884 7.99972 9.68884Z" id="Fill-6" fill="#000000" fill-rule="evenodd" stroke="none" />
</svg>