<?xml version="1.0" encoding="utf-8"?>
<svg version="1.1" xmlns:xlink="http://www.w3.org/1999/xlink" width="24px" height="16px" xmlns="http://www.w3.org/2000/svg">
  <g transform="matrix(1 0 0 1 -386 -129 )">
    <path d="M 11.7331863285559 16  C 17.0667034178613 16  21.6212789415658 12.6824696802646  23.4669239250278 8  C 21.6212789415658 3.31697905181917  17.0667034178613 0  11.7331863285559 0  C 6.40022050716675 0  1.845093715546 3.31697905181917  0 8  C 1.845093715546 12.6824696802646  6.40022050716675 16  11.7331863285559 16  Z M 11.7331863285559 2.66648291069461  C 14.6775082690191 2.66648291069461  17.0667034178614 5.05567805953694  17.0667034178614 8.00000000000003  C 17.0667034178614 10.9437706725469  14.6775082690191 13.3329658213892  11.7331863285559 13.3329658213892  C 8.78941565600906 13.3329658213892  6.40022050716675 10.9437706725469  6.40022050716675 8.00000000000003  C 6.40022050716675 5.05567805953694  8.78941565600906 2.66648291069461  11.7331863285559 2.66648291069461  Z M 14.9332965821392 8.00000000000006  C 14.9332965821392 6.22932745314228  13.5038588754137 4.7998897464168  11.7331863285559 4.7998897464168  C 9.96251378169814 4.7998897464168  8.53307607497266 6.22932745314228  8.53307607497266 8.00000000000006  C 8.53307607497266 9.77067254685781  9.96251378169814 11.2001102535833  11.7331863285559 11.2001102535833  C 13.5038588754137 11.2001102535833  14.9332965821392 9.77067254685781  14.9332965821392 8.00000000000006  Z " fill-rule="nonzero" fill="#6b6b6b" stroke="none" transform="matrix(1 0 0 1 386 129 )" />
  </g>
</svg>