<?xml version="1.0" encoding="utf-8"?>
<svg version="1.1" xmlns:xlink="http://www.w3.org/1999/xlink" width="16px" height="16px" xmlns="http://www.w3.org/2000/svg">
  <g transform="matrix(1 0 0 1 -69 -228 )">
    <path d="M 2.7036303630363 14.6481848184818  L 3.83366336633663 14.6481848184818  L 4.79471947194719 13.6871287128713  L 2.31287128712871 11.2052805280528  L 1.35181518151815 12.1663366336634  L 1.35181518151815 13.2963696369637  L 2.7036303630363 13.2963696369637  L 2.7036303630363 14.6481848184818  Z M 9.28316831683168 5.02706270627063  C 9.33245324532453 4.97777777777778  9.35709570957096 4.91793179317932  9.35709570957096 4.84752475247525  C 9.35709570957096 4.69262926292629  9.27964796479648 4.61518151815181  9.12475247524752 4.61518151815181  C 9.05434543454346 4.61518151815181  8.994499449945 4.63982398239824  8.94521452145215 4.68910891089109  L 3.22112211221122 10.413201320132  C 3.17183718371837 10.4624862486249  3.14719471947195 10.5223322332233  3.14719471947195 10.5927392739274  C 3.14719471947195 10.7476347634763  3.22464246424643 10.8250825082508  3.37953795379538 10.8250825082508  C 3.44994499449945 10.8250825082508  3.50979097909791 10.8004400440044  3.55907590759076 10.7511551155116  L 9.28316831683168 5.02706270627063  Z M 0 11.606600660066  L 8.78679867986799 2.81980198019802  L 13.180198019802 7.21320132013201  L 4.39339933993399 16  L 0 16  L 0 11.606600660066  Z M 15.6092409240924 2.87260726072607  C 15.8697469746975 3.14719471947195  16 3.46754675467547  16 3.83366336633663  C 16 4.20682068206821  15.8697469746975 4.52365236523652  15.6092409240924 4.78415841584158  L 13.8561056105611 6.53729372937294  L 9.46270627062706 2.14389438943894  L 11.2158415841584 0.4013201320132  C 11.4693069306931 0.133773377337732  11.7861386138614 0  12.1663366336634 0  C 12.5394939493949 0  12.8598459845985 0.133773377337732  13.1273927392739 0.4013201320132  L 15.6092409240924 2.87260726072607  Z " fill-rule="nonzero" fill="#071e33" stroke="none" transform="matrix(1 0 0 1 69 228 )" />
  </g>
</svg>