<?xml version="1.0" encoding="utf-8"?>
<svg version="1.1" xmlns:xlink="http://www.w3.org/1999/xlink" width="16px" height="16px" xmlns="http://www.w3.org/2000/svg">
  <g transform="matrix(1 0 0 1 -654 -371 )">
    <path d="M 9.68229166666667 8.859375  C 9.97743055555556 8.16840277777778  10.125 7.46180555555556  10.125 6.73958333333333  C 10.125 5.98958333333333  9.93923611111111 5.40277777777778  9.56770833333333 4.97916666666667  C 9.19618055555556 4.55555555555556  8.68402777777778 4.34375  8.03125 4.34375  C 7.59375 4.34375  7.16319444444445 4.44965277777778  6.73958333333333 4.66145833333333  C 6.31597222222222 4.87326388888889  5.93402777777778 5.16666666666667  5.59375 5.54166666666667  C 5.25347222222222 5.91666666666667  4.97743055555556 6.39236111111111  4.765625 6.96875  C 4.55381944444444 7.54513888888889  4.44791666666667 8.17013888888889  4.44791666666667 8.84375  C 4.44791666666667 9.62152777777778  4.63368055555556 10.2222222222222  5.00520833333333 10.6458333333333  C 5.37673611111111 11.0694444444444  5.89930555555556 11.28125  6.57291666666667 11.28125  C 7.23958333333333 11.28125  7.85069444444445 11.0503472222222  8.40625 10.5885416666667  C 8.96180555555556 10.1267361111111  9.38715277777778 9.55034722222222  9.68229166666667 8.859375  Z M 13.7916666666667 2.20833333333333  C 15.2638888888889 3.68055555555556  16 5.61111111111111  16 8  C 16 8.77083333333333  15.8715277777778 9.45486111111111  15.6145833333333 10.0520833333333  C 15.3576388888889 10.6493055555556  15.015625 11.1180555555556  14.5885416666667 11.4583333333333  C 14.1614583333333 11.7986111111111  13.7048611111111 12.0572916666667  13.21875 12.234375  C 12.7326388888889 12.4114583333333  12.2291666666667 12.5069444444444  11.7083333333333 12.5208333333333  C 11.6666666666667 12.5208333333333  11.6128472222222 12.5225694444444  11.546875 12.5260416666667  C 11.4809027777778 12.5295138888889  11.4236111111111 12.53125  11.375 12.53125  C 10.7152777777778 12.53125  10.2222222222222 12.3472222222222  9.89583333333333 11.9791666666667  C 9.70138888888889 11.75  9.58680555555556 11.4618055555556  9.55208333333333 11.1145833333333  C 9.19097222222222 11.5729166666667  8.734375 11.9548611111111  8.18229166666667 12.2604166666667  C 7.63020833333333 12.5659722222222  7.02777777777778 12.71875  6.375 12.71875  C 5.25694444444444 12.71875  4.390625 12.3871527777778  3.77604166666667 11.7239583333333  C 3.16145833333333 11.0607638888889  2.85416666666667 10.125  2.85416666666667 8.91666666666667  C 2.85416666666667 7.82638888888889  3.08333333333333 6.81944444444444  3.54166666666667 5.89583333333333  C 4 4.97222222222222  4.62152777777778 4.24131944444444  5.40625 3.703125  C 6.19097222222222 3.16493055555556  7.04513888888889 2.89583333333333  7.96875 2.89583333333333  C 8.57291666666667 2.89583333333333  9.11111111111111 3.01909722222222  9.58333333333333 3.265625  C 10.0555555555556 3.51215277777778  10.4236111111111 3.85763888888889  10.6875 4.30208333333333  L 10.7083333333333 4.10416666666667  L 10.8229166666667 3.52083333333333  C 10.8298611111111 3.47916666666667  10.8489583333333 3.4375  10.8802083333333 3.39583333333333  C 10.9114583333333 3.35416666666667  10.9444444444444 3.33333333333333  10.9791666666667 3.33333333333333  L 12.2083333333333 3.33333333333333  C 12.2430555555556 3.33333333333333  12.2881944444444 3.37152777777778  12.34375 3.44791666666667  C 12.3784722222222 3.48263888888889  12.3888888888889 3.53819444444444  12.375 3.61458333333333  L 11.125 10.0104166666667  C 11.0902777777778 10.1770833333333  11.0729166666667 10.34375  11.0729166666667 10.5104166666667  C 11.0729166666667 10.78125  11.1163194444444 10.9618055555556  11.203125 11.0520833333333  C 11.2899305555556 11.1423611111111  11.4444444444444 11.1875  11.6666666666667 11.1875  C 11.8611111111111 11.1805555555556  12.0590277777778 11.1614583333333  12.2604166666667 11.1302083333333  C 12.4618055555556 11.0989583333333  12.7152777777778 11.015625  13.0208333333333 10.8802083333333  C 13.3263888888889 10.7447916666667  13.59375 10.5711805555556  13.8229166666667 10.359375  C 14.0520833333333 10.1475694444444  14.25 9.83680555555555  14.4166666666667 9.42708333333333  C 14.5833333333333 9.01736111111111  14.6666666666667 8.54166666666667  14.6666666666667 8  C 14.6666666666667 5.97222222222222  14.0625 4.35416666666667  12.8541666666667 3.14583333333333  C 11.6458333333333 1.9375  10.0277777777778 1.33333333333333  8 1.33333333333333  C 7.09722222222222 1.33333333333333  6.234375 1.51041666666667  5.41145833333333 1.86458333333333  C 4.58854166666667 2.21875  3.88020833333333 2.69270833333333  3.28645833333333 3.28645833333333  C 2.69270833333333 3.88020833333333  2.21875 4.58854166666667  1.86458333333333 5.41145833333333  C 1.51041666666667 6.234375  1.33333333333333 7.09722222222222  1.33333333333333 8  C 1.33333333333333 8.90277777777778  1.51041666666667 9.765625  1.86458333333333 10.5885416666667  C 2.21875 11.4114583333333  2.69270833333333 12.1197916666667  3.28645833333333 12.7135416666667  C 3.88020833333333 13.3072916666667  4.58854166666667 13.78125  5.41145833333333 14.1354166666667  C 6.234375 14.4895833333333  7.09722222222222 14.6666666666667  8 14.6666666666667  C 9.58333333333333 14.6666666666667  10.9895833333333 14.1666666666667  12.21875 13.1666666666667  C 12.2951388888889 13.1041666666667  12.3784722222222 13.0763888888889  12.46875 13.0833333333333  C 12.5590277777778 13.0902777777778  12.6319444444444 13.1319444444444  12.6875 13.2083333333333  L 13.1145833333333 13.71875  C 13.1701388888889 13.8020833333333  13.1944444444444 13.8854166666667  13.1875 13.96875  C 13.1736111111111 14.0590277777778  13.1319444444444 14.1354166666667  13.0625 14.1979166666667  C 12.3541666666667 14.7743055555556  11.5642361111111 15.21875  10.6927083333333 15.53125  C 9.82118055555556 15.84375  8.92361111111111 16  8 16  C 6.91666666666667 16  5.88194444444445 15.7881944444444  4.89583333333333 15.3645833333333  C 3.90972222222222 14.9409722222222  3.05902777777778 14.3715277777778  2.34375 13.65625  C 1.62847222222222 12.9409722222222  1.05902777777778 12.0902777777778  0.635416666666667 11.1041666666667  C 0.211805555555556 10.1180555555556  0 9.08333333333333  0 8  C 0 6.91666666666667  0.211805555555556 5.88194444444444  0.635416666666667 4.89583333333333  C 1.05902777777778 3.90972222222222  1.62847222222222 3.05902777777778  2.34375 2.34375  C 3.05902777777778 1.62847222222222  3.90972222222222 1.05902777777778  4.89583333333333 0.635416666666666  C 5.88194444444445 0.211805555555555  6.91666666666667 0  8 0  C 10.3888888888889 0  12.3194444444444 0.736111111111109  13.7916666666667 2.20833333333333  Z " fill-rule="nonzero" fill="#071e33" stroke="none" transform="matrix(1 0 0 1 654 371 )" />
  </g>
</svg>