<?xml version="1.0" encoding="utf-8"?>
<svg version="1.1" xmlns:xlink="http://www.w3.org/1999/xlink" width="16px" height="16px" xmlns="http://www.w3.org/2000/svg">
  <g transform="matrix(1 0 0 1 -22 -129 )">
    <path d="M 6.66666666666667 12.3958333333333  C 6.84722222222222 12.3958333333333  7.00347222222222 12.3298611111111  7.13541666666667 12.1979166666667  L 13.53125 5.80208333333333  C 13.6631944444444 5.67013888888889  13.7291666666667 5.51388888888889  13.7291666666667 5.33333333333333  C 13.7291666666667 5.15277777777778  13.6631944444444 4.99652777777778  13.53125 4.86458333333333  L 12.46875 3.80208333333333  C 12.3368055555556 3.67013888888889  12.1805555555556 3.60416666666667  12 3.60416666666667  C 11.8194444444444 3.60416666666667  11.6631944444444 3.67013888888889  11.53125 3.80208333333333  L 6.66666666666667 8.66666666666667  L 4.46875 6.46875  C 4.33680555555556 6.33680555555556  4.18055555555556 6.27083333333333  4 6.27083333333333  C 3.81944444444444 6.27083333333333  3.66319444444444 6.33680555555556  3.53125 6.46875  L 2.46875 7.53125  C 2.33680555555556 7.66319444444444  2.27083333333333 7.81944444444444  2.27083333333333 8  C 2.27083333333333 8.18055555555555  2.33680555555556 8.33680555555555  2.46875 8.46875  L 6.19791666666667 12.1979166666667  C 6.32986111111111 12.3298611111111  6.48611111111111 12.3958333333333  6.66666666666667 12.3958333333333  Z M 15.1197916666667 0.880208333333334  C 15.7065972222222 1.46701388888889  16 2.17361111111111  16 3  L 16 13  C 16 13.8263888888889  15.7065972222222 14.5329861111111  15.1197916666667 15.1197916666667  C 14.5329861111111 15.7065972222222  13.8263888888889 16  13 16  L 3 16  C 2.17361111111111 16  1.46701388888889 15.7065972222222  0.880208333333333 15.1197916666667  C 0.293402777777778 14.5329861111111  0 13.8263888888889  0 13  L 0 3  C 0 2.17361111111111  0.293402777777778 1.46701388888889  0.880208333333333 0.880208333333334  C 1.46701388888889 0.293402777777777  2.17361111111111 0  3 0  L 13 0  C 13.8263888888889 0  14.5329861111111 0.293402777777777  15.1197916666667 0.880208333333334  Z " fill-rule="nonzero" fill="#6d000e" stroke="none" transform="matrix(1 0 0 1 22 129 )" />
  </g>
</svg>