<?xml version="1.0" encoding="utf-8"?>
<svg version="1.1" xmlns:xlink="http://www.w3.org/1999/xlink" width="230px" height="62px" xmlns="http://www.w3.org/2000/svg">
  <g transform="matrix(1 0 0 1 -51 -93 )">
    <path d="M 256.704102803687 94.5  C 256.704102803687 94.5  259.448022375815 94.8698326379825  259.448022375815 94.8698326379825  C 259.448022375815 94.8698326379825  279.339361322416 124  279.339361322416 124  C 279.339361322416 124  259.448022375815 153.130167362018  259.448022375815 153.130167362018  C 259.448022375815 153.130167362018  256.704102803687 153.5  256.704102803687 153.5  C 256.704102803687 153.5  52.5 153.5  52.5 153.5  C 52.5 153.5  52.5 94.5  52.5 94.5  C 52.5 94.5  256.704102803687 94.5  256.704102803687 94.5  Z " fill-rule="nonzero" fill="#071e33" stroke="none" />
    <path d="M 256.536068535791 94  C 256.536068535791 94  259.698681583877 94.4262652369159  259.698681583877 94.4262652369159  C 259.698681583877 94.4262652369159  279.892907548278 124  279.892907548278 124  C 279.892907548278 124  259.698681583877 153.573734763084  259.698681583877 153.573734763084  C 259.698681583877 153.573734763084  256.536068535791 154  256.536068535791 154  C 256.536068535791 154  52 154  52 154  C 52 154  52 94  52 94  C 52 94  256.536068535791 94  256.536068535791 94  Z " stroke-width="2" stroke="#ffffff" fill="none" />
  </g>
</svg>