<?xml version="1.0" encoding="utf-8"?>
<svg version="1.1" xmlns:xlink="http://www.w3.org/1999/xlink" width="255px" height="62px" xmlns="http://www.w3.org/2000/svg">
  <g transform="matrix(1 0 0 1 -486 -93 )">
    <path d="M 716.831811846832 94.5  C 716.831811846832 94.5  719.461977164439 94.8197455876307  719.461977164439 94.8197455876307  C 719.461977164439 94.8197455876307  739.353002662859 124  739.353002662859 124  C 739.353002662859 124  719.461977164439 153.180254412369  719.461977164439 153.180254412369  C 719.461977164439 153.180254412369  716.831811846832 153.5  716.831811846832 153.5  C 716.831811846832 153.5  487.5 153.5  487.5 153.5  C 487.5 153.5  487.5 94.5  487.5 94.5  C 487.5 94.5  716.831811846832 94.5  716.831811846832 94.5  Z " fill-rule="nonzero" fill="#acabab" stroke="none" />
    <path d="M 716.621207897888 94  C 716.621207897888 94  719.707984776293 94.3752552283551  719.707984776293 94.3752552283551  C 719.707984776293 94.3752552283551  739.902001775239 124  739.902001775239 124  C 739.902001775239 124  719.707984776293 153.624744771645  719.707984776293 153.624744771645  C 719.707984776293 153.624744771645  716.621207897888 154  716.621207897888 154  C 716.621207897888 154  487 154  487 154  C 487 154  487 94  487 94  C 487 94  716.621207897888 94  716.621207897888 94  Z " stroke-width="2" stroke="#ffffff" fill="none" />
  </g>
</svg>